<svg width="36" height="36" viewBox="0 0 24 24" fill="none" xmlns="http://www.w3.org/2000/svg">
<path d="M9.75 5.7373V11.0625C9.75 11.4106 9.61172 11.7444 9.36558 11.9906C9.11944 12.2367 8.7856 12.375 8.4375 12.375H2.3125C1.9644 12.375 1.63056 12.2367 1.38442 11.9906C1.13828 11.7444 1 11.4106 1 11.0625V2.3125C1 1.9644 1.13828 1.63056 1.38442 1.38442C1.63056 1.13828 1.9644 1 2.3125 1H5.0127C5.24468 1.00004 5.46715 1.09219 5.63121 1.25621L9.49379 5.11879C9.65781 5.28285 9.74996 5.50532 9.75 5.7373Z" stroke="#468585" stroke-width="0.875" stroke-linejoin="round"/>
<path d="M5.375 1.21875V4.5C5.375 4.73206 5.46719 4.95462 5.63128 5.11872C5.79538 5.28281 6.01794 5.375 6.25 5.375H9.53125" stroke="#468585" stroke-width="0.875" stroke-linecap="round" stroke-linejoin="round"/>
</svg>
