<svg width="36" height="36" viewBox="0 0 24 24" fill="none" xmlns="http://www.w3.org/2000/svg">
<path d="M8.02053 7.875H3.9372C3.22651 7.87495 2.52909 7.68255 1.9189 7.3182C1.30871 6.95386 0.808502 6.43116 0.471334 5.80555C0.134166 5.17993 -0.0273922 4.47472 0.00379347 3.76472C0.0349792 3.05472 0.257746 2.36639 0.648468 1.77275C1.03919 1.1791 1.5833 0.702272 2.22308 0.392833C2.86287 0.0833939 3.57447 -0.0471183 4.28243 0.0151388C4.99039 0.077396 5.66829 0.330101 6.24425 0.746452C6.82021 1.1628 7.27275 1.72728 7.55387 2.38C7.70767 2.35024 7.86388 2.33462 8.02053 2.33333C8.74094 2.37754 9.42032 2.68365 9.93069 3.19402C10.441 3.70438 10.7472 4.38376 10.7914 5.10417C10.7914 5.46804 10.7197 5.82835 10.5804 6.16452C10.4412 6.50069 10.2371 6.80615 9.97981 7.06344C9.72251 7.32074 9.41706 7.52484 9.08089 7.66408C8.74471 7.80333 8.3844 7.875 8.02053 7.875ZM3.9372 0.875002C3.12497 0.875002 2.34602 1.19766 1.77168 1.77199C1.19735 2.34632 0.8747 3.12528 0.8747 3.9375C0.8747 4.74973 1.19735 5.52869 1.77168 6.10302C2.34602 6.67735 3.12497 7 3.9372 7H8.02053C8.52287 6.99846 9.00418 6.79823 9.35939 6.44302C9.71459 6.08782 9.91483 5.6065 9.91637 5.10417C9.87422 4.61551 9.66094 4.1574 9.31412 3.81058C8.9673 3.46376 8.5092 3.25048 8.02053 3.20833C7.82131 3.21289 7.62421 3.25033 7.4372 3.31917C7.32861 3.36266 7.20745 3.36266 7.09887 3.31917C7.04739 3.29322 7.00172 3.2571 6.96462 3.21298C6.92752 3.16886 6.89976 3.11766 6.88303 3.0625C6.69491 2.42818 6.30604 1.87203 5.77485 1.47758C5.24366 1.08313 4.59882 0.871682 3.9372 0.875002Z" fill="#468585"/>
</svg>
