<svg width="36" height="36" viewBox="0 0 24 24" fill="none" xmlns="http://www.w3.org/2000/svg">
<path d="M10.5972 2.29444C9.71609 2.05891 8.8552 1.75331 8.02278 1.38056C7.20395 1.02535 6.41349 0.608021 5.65833 0.132222L5.44444 0L5.23444 0.136111C4.47928 0.61191 3.68883 1.02924 2.87 1.38444C2.03621 1.75607 1.17401 2.06037 0.291667 2.29444L0 2.36833V5.61167C0 10.8189 5.26167 12.7672 5.31222 12.7867L5.44444 12.8333L5.57667 12.7867C5.63111 12.7867 10.8889 10.8228 10.8889 5.61167V2.36833L10.5972 2.29444ZM10.1111 5.61167C10.1111 9.88944 6.22222 11.6822 5.44444 12.0011C4.66667 11.6822 0.777778 9.88556 0.777778 5.61167V2.97111C1.59814 2.73532 2.40118 2.44295 3.18111 2.09611C3.96123 1.75919 4.71743 1.3694 5.44444 0.929445C6.17145 1.3694 6.92766 1.75919 7.70778 2.09611C8.48771 2.44295 9.29075 2.73532 10.1111 2.97111V5.61167Z" fill="#468585"/>
</svg>
