<svg width="14" height="14" viewBox="0 0 14 14" fill="none" xmlns="http://www.w3.org/2000/svg">
<g clip-path="url(#clip0_2083_13533)">
<path d="M14 7.00004V6.99654C14 4.92512 13.0982 3.06487 11.6661 1.78562L11.6591 1.77979C11.6414 1.76072 11.6216 1.7437 11.6002 1.72904L11.599 1.72846C10.3271 0.611683 8.69144 -0.00267481 6.99884 0.000623564C5.23017 0.000623564 3.6155 0.657457 2.38467 1.74129L2.39225 1.73487C2.37742 1.74613 2.36374 1.75883 2.35142 1.77279C1.61148 2.42798 1.0192 3.23351 0.613819 4.13488C0.20844 5.03624 -0.000785685 6.01346 2.21705e-06 7.00179C2.21705e-06 9.07262 0.900669 10.9329 2.33159 12.2127L2.33859 12.2185C2.35712 12.2396 2.37784 12.2585 2.40042 12.2751L2.40159 12.2757C3.67316 13.3908 5.30757 14.0043 6.99884 14.0012C8.69801 14.0038 10.3394 13.3847 11.6136 12.2605L11.606 12.267C12.3588 11.6125 12.9622 10.804 13.3754 9.8961C13.7886 8.98823 14.002 8.00219 14.0012 7.00471V7.00062L14 7.00004ZM11.3972 11.553C11.0504 11.2725 10.6775 11.0259 10.2836 10.8168L10.2457 10.7981C10.6033 9.76737 10.8185 8.57912 10.8389 7.34304V7.33371H13.3245C13.2407 8.93286 12.5524 10.4404 11.3989 11.5512L11.3972 11.553ZM7.33367 10.675C8.08209 10.7153 8.7815 10.8798 9.42667 11.1475L9.38467 11.1324C8.86783 12.3107 8.14042 13.1204 7.33367 13.2983V10.675ZM7.33367 10.0077V7.33371H10.1733C10.1508 8.44102 9.9588 9.53836 9.604 10.5875L9.62675 10.5111C8.90252 10.2135 8.13224 10.0433 7.35 10.0083L7.33425 10.0077H7.33367ZM7.33367 6.66637V3.99237C8.13702 3.95571 8.9279 3.77985 9.67109 3.47262L9.625 3.48954C9.94875 4.43396 10.1477 5.52246 10.1733 6.65412V6.66637H7.33367ZM7.33367 3.32504V0.702957C8.14042 0.880874 8.86783 1.68704 9.38467 2.86887C8.7815 3.11971 8.08209 3.28362 7.35059 3.32446L7.33367 3.32504ZM8.9985 0.991707C9.68587 1.22098 10.3287 1.56668 10.899 2.01371L10.8856 2.00321C10.6272 2.20621 10.3373 2.39754 10.0316 2.56379L9.99892 2.58012C9.75192 1.99721 9.41232 1.45807 8.99325 0.98354L8.9985 0.989957V0.991707ZM6.66517 0.704707V3.32504C5.94562 3.28833 5.2377 3.12852 4.57217 2.85254L4.61417 2.86771C5.13334 1.68937 5.85959 0.88029 6.66634 0.702374L6.66517 0.704707ZM4.0005 2.57837C3.68429 2.40825 3.383 2.21175 3.09984 1.99096L3.11384 2.00146C3.6675 1.56755 4.29025 1.22994 4.956 1.00279L5.00034 0.989373C4.59224 1.45104 4.25972 1.97434 4.01509 2.53987L4.0005 2.57837ZM6.66634 3.99179V6.66579H3.82667C3.85234 5.52187 4.05125 4.43337 4.39775 3.41254L4.375 3.48896C5.09895 3.78615 5.8688 3.95606 6.65059 3.99121L6.66634 3.99179ZM6.66634 7.33312V10.0071C5.86299 10.0438 5.0721 10.2196 4.32892 10.5269L4.375 10.51C4.05125 9.56612 3.85234 8.47704 3.82667 7.34537V7.33312H6.66634ZM6.66634 10.6745V13.2965C5.85959 13.1186 5.13217 12.3125 4.61534 11.1306C5.2185 10.8798 5.91792 10.7165 6.64942 10.6756L6.66634 10.6745ZM5.00384 13.0078C4.31664 12.7792 3.6738 12.4343 3.10334 11.9881L3.11734 11.9986C3.37575 11.7956 3.66567 11.6043 3.97134 11.438L4.004 11.4217C4.24893 12.0049 4.58853 12.5435 5.00909 13.016L5.00384 13.0101V13.0078ZM9.9995 11.4211C10.3378 11.6049 10.6278 11.7956 10.9002 12.0085L10.8862 11.998C10.3325 12.432 9.70975 12.7696 9.044 12.9967L8.99967 13.0101C9.40775 12.5487 9.74028 12.0256 9.98492 11.4602L9.9995 11.4223V11.4211ZM13.3245 6.66637H10.8389C10.821 5.45943 10.6128 4.26287 10.2218 3.12087L10.2457 3.20137C10.6577 2.98441 11.0479 2.72811 11.4106 2.43604L11.3966 2.44654C12.5477 3.55314 13.2362 5.05511 13.3233 6.64946L13.3245 6.66637ZM2.60284 2.44712C2.93884 2.72012 3.31625 2.97037 3.71642 3.18329L3.75434 3.20196C3.39675 4.23271 3.1815 5.42096 3.16109 6.65704V6.66637H0.674919C0.758739 5.06722 1.44705 3.55966 2.6005 2.44887L2.60284 2.44712ZM0.675502 7.33371H3.16109C3.17897 8.54065 3.38725 9.73721 3.77825 10.8792L3.75434 10.7987C3.31625 11.0315 2.93942 11.2817 2.58942 11.564L2.60342 11.5535C1.45235 10.4469 0.763798 8.94497 0.676669 7.35062L0.676086 7.33429L0.675502 7.33371Z" fill="#000"/>
</g>
<defs>
<clipPath id="clip0_2083_13533">
<rect width="14" height="14" fill="white"/>
</clipPath>
</defs>
</svg>
