<svg width="34" height="26" viewBox="0 0 34 26" fill="none" xmlns="http://www.w3.org/2000/svg">
<g clip-path="url(#clip0_2074_6653)">
<mask id="mask0_2074_6653" style="mask-type:luminance" maskUnits="userSpaceOnUse" x="-1" y="-1" width="36" height="28">
<path d="M35 -1H-1V27H35V-1Z" fill="white"/>
</mask>
<g mask="url(#mask0_2074_6653)">
<path d="M35 -1H-1V27H35V-1Z" fill="#B277FF"/>
<path d="M33.25 -0.75H0.75C0.05859 -0.75 -0.5 -0.191406 -0.5 0.5V25.5C-0.5 26.1914 0.05859 26.75 0.75 26.75H33.25C33.9414 26.75 34.5 26.1914 34.5 25.5V0.5C34.5 -0.191406 33.9414 -0.75 33.25 -0.75ZM10.2031 4.875C11.582 4.875 12.7031 5.99609 12.7031 7.375C12.7031 8.75391 11.582 9.875 10.2031 9.875C8.82422 9.875 7.70312 8.75391 7.70312 7.375C7.70312 5.99609 8.82422 4.875 10.2031 4.875ZM30.2773 21.9492C30.2205 21.997 30.1485 22.0233 30.0742 22.0234H3.92188C3.75 22.0234 3.60938 21.8828 3.60938 21.7109C3.60938 21.6367 3.63672 21.5664 3.68359 21.5078L10.3359 13.6172C10.4453 13.4844 10.6445 13.4688 10.7773 13.5781C10.7891 13.5898 10.8047 13.6016 10.8164 13.6172L14.6992 18.2266L20.875 10.9023C20.9844 10.7695 21.1836 10.7539 21.3164 10.8633C21.3281 10.875 21.3438 10.8867 21.3555 10.9023L30.3242 21.5117C30.4258 21.6406 30.4102 21.8398 30.2773 21.9492Z" fill="white"/>
</g>
</g>
<defs>
<clipPath id="clip0_2074_6653">
<rect width="34" height="26" rx="2" fill="white"/>
</clipPath>
</defs>
</svg>
