<svg width="20" height="18" viewBox="0 0 20 18" fill="none" xmlns="http://www.w3.org/2000/svg">
<path d="M19.8905 6.465L16.4119 1.24742C16.289 1.06312 16.0825 0.957031 15.8693 0.957031H4.13016C3.91293 0.957031 3.7082 1.06645 3.58754 1.24742L0.108948 6.465C-0.0552709 6.71109 -0.0326147 7.04046 0.165823 7.26199L9.51394 17.6971C9.77195 17.9851 10.2265 17.9862 10.4855 17.6971L19.8336 7.26199C20.0287 7.04421 20.0576 6.71546 19.8905 6.465ZM14.9282 2.26137L13.7202 5.48281L11.3041 2.26137H14.9282ZM12.6085 6.17453H7.39093L9.99972 2.69617L12.6085 6.17453ZM8.69527 2.26137L6.27922 5.48281L5.07117 2.26137H8.69527ZM3.96648 3.03035L5.14551 6.17457H1.87024L3.96648 3.03035ZM2.11145 7.47894H5.63465L8.17125 14.2434L2.11145 7.47894ZM9.99968 15.4044L7.02777 7.47894H12.9716L9.99968 15.4044ZM11.8281 14.2433L14.3647 7.4789H17.8879L11.8281 14.2433ZM14.8538 6.17457L16.0329 3.03035L18.1292 6.17457H14.8538Z" fill="#468585"/>
</svg>
